<?xml version="1.0" encoding="UTF-8"?><svg id="_Слой_1" xmlns="http://www.w3.org/2000/svg" viewBox="0 0 1080 1080"><defs><style>.cls-1{fill:#fff;stroke-width:0px;}</style></defs><path class="cls-1" d="M641.53,280.77c80.59,0,129.03,71.68,129.03,138.33,0,81.76-48.05,139.1-111.2,139.1-78.27,0-124.38-73.62-124.38-139.1,0-84.47,43.78-138.33,106.55-138.33ZM621.38,297.04c-46.11,0-64.71,34.48-64.71,77.49,0,75.17,44.95,167.39,121.67,167.39,49.21,0,70.91-37.58,70.91-82.53,0-70.13-45.72-162.35-127.86-162.35Z"/><path class="cls-1" d="M811.63,328.04c0-7.36,0-16.66-1.16-21.7-1.16-7.36-4.26-12.79-13.17-15.11-5.04-1.55-22.86-1.94-22.86-1.94v-5.43h186.37l53.47,111.98-5.42,2.71-16.27-34.1c-19.76-40.3-46.11-70.52-84.08-73.23-8.14-.78-17.44-1.16-25.96-1.16h-38.36v76.33h59.28l-14.34-33.32,5.04-2.33,88.34,163.9-4.65,2.71s-46.88-84.08-56.96-97.64c-15.5-21.31-32.16-27.12-57.34-27.12h-19.37v172.81l58.51,4.26v5.42h-128.25v-5.42s17.82-.39,22.86-1.94c8.91-2.33,12.01-7.75,13.17-15.11,1.16-5.04,1.16-14.34,1.16-21.7v-182.89Z"/><path class="cls-1" d="M539.22,573.81c-8.27,13.69-20.92,20.54-37.97,20.54-8.78,0-16.85-2-24.22-6.01-7.36-4.01-13.75-9.56-19.18-16.66-5.42-7.11-9.63-15.63-12.59-25.57-2.97-9.94-4.46-20.73-4.46-32.35,0-37.45,10.98-84.86,32.94-142.2,2.58-7.23,5.1-13.69,7.55-19.37,2.45-5.68,4.97-10.98,7.56-15.89,2.58-4.9,5.29-9.75,8.14-14.53,2.84-4.78,6.07-9.88,9.69-15.31-3.1,2.32-5.81,4.46-8.14,6.39-2.33,1.94-4.4,3.81-6.2,5.62-1.81,1.81-3.55,3.68-5.23,5.62-1.68,1.94-3.55,4.2-5.62,6.78-5.95,7.5-12.66,16.99-20.15,28.48-7.5,11.5-14.72,23.83-21.7,37-3.1,5.17-6.07,10.53-8.91,16.08-2.85,5.56-5.81,10.92-8.91,16.08-2.85,5.17-5.04,9.17-6.59,12.01-1.55,2.85-2.91,5.3-4.07,7.36-1.16,2.07-2.46,4.13-3.87,6.2-1.42,2.07-3.43,4.91-6.01,8.52v-16.66l.39-46.88-.39-24.8c0-11.88-.26-22.21-.78-31-.52-8.78-1.16-16.4-1.94-22.86-.52-.51-1.29-3.87-2.32-10.07-1.81,3.62-3.49,6.85-5.04,9.69-1.55,2.85-2.97,5.75-4.26,8.72-1.29,2.97-2.52,6.2-3.68,9.69-1.16,3.49-2.26,7.56-3.29,12.21-.78,2.85-1.49,5.36-2.13,7.56-.65,2.2-1.3,4.65-1.94,7.36-.65,2.71-1.49,6.2-2.52,10.46-1.03,4.26-2.32,9.88-3.87,16.85-.77,3.87-1.42,6.91-1.94,9.11-.52,2.2-.97,4.33-1.35,6.39-.39,2.07-.84,4.26-1.36,6.59-.52,2.32-1.16,5.56-1.94,9.69-2.33,10.6-4.52,19.95-6.59,28.09-2.07,8.14-4.26,15.57-6.59,22.28-2.33,6.72-4.84,13.05-7.56,18.99-2.71,5.95-5.75,11.88-9.11,17.82-26.09,47.79-64.07,71.68-113.92,71.68-21.18,0-41.07-4.46-59.67-13.37-18.6-8.91-34.87-20.99-48.82-36.23-13.95-15.24-24.93-33.06-32.94-53.47-8.01-20.4-12.01-42.1-12.01-65.1,0-21.7,3.81-42.1,11.43-61.22,7.62-19.11,18.08-35.97,31.39-50.56,13.3-14.59,29.06-26.41,47.27-35.45,18.21-9.04,37.91-14.34,59.09-15.89,12.65-14.72,26.15-25.44,40.49-32.16,14.34-6.71,31.19-10.07,50.56-10.07,26.35,0,48.63,5.75,66.84,17.24,18.21,11.5,31.45,27.84,39.72,49.02,2.58,6.97,4.78,14.21,6.59,21.7,1.8,7.5,3.29,15.5,4.46,24.02,1.16,8.52,2,17.96,2.52,28.28.51,10.33.78,21.96.78,34.87v20.54c5.68-10.85,10.85-20.34,15.5-28.48,4.65-8.14,9.11-15.5,13.37-22.09,4.26-6.59,8.46-12.53,12.59-17.82,4.13-5.29,8.39-10.4,12.79-15.31,14.72-17.05,30.54-30.74,47.47-41.07,16.92-10.33,34.68-17.3,53.28-20.92v6.2c-8.01,1.81-14.92,4.07-20.73,6.78s-11.04,6.2-15.69,10.46c-4.65,4.26-8.85,9.49-12.59,15.69-3.75,6.2-7.56,13.7-11.43,22.47-3.1,6.2-6.27,13.63-9.49,22.28-3.23,8.66-6.39,18.08-9.49,28.29-3.1,10.21-6.14,20.86-9.11,31.97-2.97,11.11-5.75,22.22-8.33,33.32-2.59,10.6-4.78,20.34-6.59,29.25-1.81,8.91-3.23,17.18-4.26,24.8-1.03,7.62-1.81,14.79-2.32,21.5-.52,6.72-.78,13.31-.78,19.76,0,17.05,3.03,30.28,9.11,39.72,6.07,9.43,14.92,14.14,26.54,14.14,5.68,0,10.59-1.23,14.72-3.68,4.13-2.46,8.39-6.27,12.79-11.43l5.04,2.33ZM393.53,300.26c-6.72-26.6-18.41-47.01-35.07-61.22-16.66-14.2-36.75-21.31-60.25-21.31-14.98,0-28.42,2.65-40.3,7.94-11.89,5.3-23.25,14.14-34.1,26.54h6.59c13.43,0,26.67,2.46,39.72,7.36,13.04,4.91,24.99,12.01,35.84,21.31,12.14,10.33,21.12,21.7,26.93,34.1,5.81,12.4,9.75,27.51,11.82,45.33,2.33-3.61,4.26-6.71,5.81-9.3,1.55-2.58,2.84-5.1,3.87-7.56,1.03-2.45,1.94-5.1,2.71-7.94.77-2.84,1.68-6.45,2.71-10.85l5.81,1.16c-2.58,9.82-5.3,18.15-8.14,24.99-2.85,6.85-6.85,14.14-12.01,21.89-.78,18.34-4.01,35.13-9.69,50.37-5.69,15.24-13.37,28.29-23.06,39.14s-21.18,19.31-34.48,25.38c-13.31,6.07-27.97,9.11-43.98,9.11-12.66,0-24.35-2.26-35.07-6.78-10.72-4.52-20.02-10.66-27.9-18.41-7.88-7.75-14.02-16.92-18.41-27.51-4.4-10.59-6.59-22.09-6.59-34.49,0-4.65.32-9.11.97-13.37.64-4.26,2-9.23,4.07-14.92l6.2,1.55c-2.07,5.17-3.36,9.75-3.87,13.76-.52,4.01-.78,8.2-.78,12.59,0,11.37,2,21.83,6.01,31.38,4,9.56,9.49,17.89,16.47,24.99,6.97,7.11,15.24,12.66,24.8,16.66,9.55,4.01,19.89,6.01,31,6.01,12.91,0,25.25-2.71,37-8.14,11.75-5.42,22.34-12.85,31.77-22.28s17.37-20.54,23.83-33.32c6.45-12.79,10.85-26.67,13.17-41.65-10.07,10.33-19.89,17.76-29.45,22.28-9.56,4.52-20.54,6.78-32.94,6.78-11.62,0-22.47-2.45-32.55-7.36-10.07-4.9-18.93-11.49-26.54-19.76-7.62-8.26-13.63-18.02-18.02-29.25-4.4-11.24-6.59-23.18-6.59-35.84,0-5.42.32-10.46.97-15.11.64-4.65,1.68-9.3,3.1-13.95,1.42-4.65,3.35-9.49,5.81-14.53,2.45-5.04,5.48-10.52,9.11-16.47-19.89,3.36-38.11,9.82-54.63,19.37-16.53,9.56-30.81,21.38-42.82,35.45-12.01,14.08-21.38,30.22-28.09,48.43-6.72,18.21-10.07,37.65-10.07,58.32s3.74,40.75,11.24,59.48c7.49,18.73,17.69,35.2,30.61,49.4,12.91,14.21,27.96,25.51,45.14,33.9,17.18,8.39,35.46,12.59,54.83,12.59,60.44,0,104.87-48.82,133.29-146.47l20.15-67.42c3.62-12.4,7.17-23.31,10.66-32.74,3.49-9.43,7.94-19.31,13.37-29.64ZM337.73,371.16c-.52-15.24-2.59-28.22-6.2-38.94-3.62-10.72-9.43-21.51-17.44-32.35-10.07-13.17-22.41-23.38-37-30.61-14.6-7.23-29.78-10.85-45.53-10.85h-6.01c-1.94,0-4.33.13-7.17.39-14.21,19.12-21.31,39.4-21.31,60.83,0,12.14,2,23.38,6.01,33.71,4,10.33,9.49,19.37,16.47,27.12,6.97,7.75,15.17,13.82,24.61,18.21,9.43,4.4,19.57,6.59,30.42,6.59,12.65,0,23.89-2.58,33.71-7.75,9.81-5.17,19.63-13.95,29.45-26.35Z"/><path class="cls-1" d="M102.22,814.31s12.99-.28,16.66-1.41c6.5-1.69,8.75-5.65,9.6-11.01.85-3.67.85-13.27.85-20.61v-128.48c0-5.37,0-12.14-.85-15.81-.85-5.37-3.11-9.32-9.6-11.01-3.67-1.13-16.66-1.41-16.66-1.41v-3.95h57.61c71.73,0,104.2,31.35,104.2,73.14,0,25.13-13.27,47.72-38.12,60.15l13.55,24.85c.57.85,10.17,16.38,14.97,22.03,5.08,5.65,9.04,8.75,14.68,11.01,5.08,1.98,21.46,2.54,21.46,2.54v3.95h-63.54v-3.95l14.97-1.13-25.41-55.35c-11.58,4.24-25.13,6.49-40.38,6.49h-9.04v-4.52h6.21c15.53,0,28.52-4.24,38.97-11.01l-32.19-70.31,3.67-1.69,36.14,66.08c13.27-12.42,20.33-30.21,20.33-49.42,0-48-41.79-68.34-80.48-68.34h-6.78v175.36l-.28,11.3,36.71,2.82v3.67h-87.26v-3.95Z"/><path class="cls-1" d="M354.11,618.34c58.74,0,94.03,52.24,94.03,100.81,0,59.58-35.02,101.38-81.04,101.38-57.04,0-90.64-53.65-90.64-101.38,0-61.56,31.91-100.81,77.65-100.81ZM339.42,630.2c-33.6,0-47.16,25.13-47.16,56.48,0,54.78,32.76,121.99,88.67,121.99,35.86,0,51.68-27.39,51.68-60.15,0-51.11-33.32-118.32-93.19-118.32Z"/><path class="cls-1" d="M483.72,627.09l58.17,117.47,53.94-117.75-40.38-2.26v-3.95h77.94v3.95s-14.12.56-20.33,2.26c-5.93,1.69-10.17,3.67-14.97,10.73-5.65,8.47-18.36,35.58-18.36,35.58l1.13-2.54-37.56,82.17v28.52c0,7.34,0,16.94.85,20.61.85,5.37,3.11,9.32,9.6,11.01,3.67,1.13,16.66,1.41,16.66,1.41v3.95h-77.94v-3.95s12.99-.28,16.66-1.41c6.49-1.69,8.75-5.65,9.6-11.01.85-3.67.85-10.45.85-15.81v-33.32l-56.76-113.52c-3.67-6.49-10.45-11.01-17.79-12.42-6.5-1.41-22.31-2.26-22.31-2.26v-3.95h94.6v3.95l-33.6,2.54Z"/><path class="cls-1" d="M727.98,812.05v-54.22h-68.9l-29.93,54.5,25.7,1.98v3.95h-63.82v-3.95c3.67,0,7.06-.28,9.88-.56,19.77-1.98,33.6-19.48,42.07-36.14l64.95-119.45-.85,1.69c2.26-3.95,7.62-13.55,11.01-22.03.56-1.41.85-3.11.85-4.52,0-3.95-1.98-7.34-8.75-7.62-3.95-.28-58.17-1.13-58.17-1.13v-3.95h127.07v3.95s-12.99.28-16.66,1.41c-6.78,1.69-8.75,5.65-9.88,11.01-.57,3.67-.57,10.45-.85,15.81v133.28c.28,5.37.28,12.14.85,15.81,1.13,5.37,3.11,9.32,9.88,11.01,3.67,1.13,16.66,1.41,16.66,1.41v3.95h-78.78v-3.95l27.67-2.26ZM727.98,753.31v-121.99l-66.36,121.99h66.36Z"/><path class="cls-1" d="M958.86,762.78c-3.39,0-6.45,1.55-9.18,4.66-2.73,3.11-4.09,6.64-4.09,10.59,0,3.58.89,6.68,2.68,9.32,1.79,2.64,4,4.71,6.64,6.21l3.95,1.98c1.88.75,2.82,2.92,2.82,6.49,0,4.52-1.27,8.71-3.81,12.57-2.54,3.86-6.07,7.24-10.59,10.17-4.52,2.92-9.84,5.17-15.96,6.78-6.12,1.6-12.76,2.4-19.91,2.4-5.46,0-10.64-.33-15.53-.99-4.9-.66-9.88-1.74-14.97-3.25-5.08-1.51-10.31-3.49-15.67-5.93-5.37-2.45-11.15-5.46-17.37-9.04,5.83-6.4,10.63-12.61,14.4-18.64,3.76-6.02,7.25-12.8,10.45-20.33,5.27-1.88,10.12-3.9,14.54-6.07,4.42-2.16,8.66-4.56,12.71-7.2,4.05-2.63,8-5.65,11.86-9.04,3.86-3.39,7.95-7.34,12.28-11.86,17.69-18.26,31.06-37.13,40.1-56.62,9.04-19.48,13.55-39.49,13.55-60.01,0-13.17-2.36-23.62-7.06-31.35-4.71-7.72-11.58-11.58-20.61-11.58-8.39,0-12.9,1.37-16.17,2.75-3.02,1.27-6.84,3.75-7.72,4.45-4.79,3.8-12.28,12.27-12.26,12.29-5.08,6.21-9.46,12-13.13,17.37-3.67,5.37-7.06,11.34-10.17,17.93-3.11,6.59-6.17,14.22-9.18,22.87-3.01,8.66-6.31,19.39-9.88,32.19-1.51,3.95-2.68,7.77-3.53,11.44-.85,3.67-2.4,8.71-4.66,15.11-1.32,4.52-2.45,8.33-3.39,11.44-.94,3.11-1.74,5.79-2.4,8.05-.66,2.26-1.27,4.24-1.84,5.93-.56,1.69-1.13,3.49-1.69,5.37-1.13,3.39-2.07,6.26-2.82,8.61-.75,2.36-1.51,4.52-2.26,6.5-.75,1.98-1.51,4.05-2.26,6.21-.75,2.17-1.69,4.66-2.82,7.48-2.64.38-4.94.57-6.92.57h-5.22c-12.24,0-23.68-2.3-34.31-6.92-10.64-4.61-19.91-10.91-27.82-18.92-7.91-8-14.17-17.41-18.78-28.24-1.01-2.37-1.89-4.78-2.68-7.22-.06,3.97-.24,7.89-.7,11.66,4.53,9.23,10.17,17.5,16.93,24.78,8.56,9.23,18.59,16.47,30.07,21.74,11.48,5.27,23.72,7.91,36.71,7.91,1.5,0,3.15-.04,4.94-.14,1.79-.09,4-.14,6.64-.14-1.51,3.39-3.15,6.78-4.94,10.17-1.79,3.39-3.53,6.59-5.22,9.6-13.74-8.85-25.56-15.25-35.44-19.2-9.88-3.95-19.25-5.93-28.1-5.93-6.21,0-11.91.85-17.08,2.54-1.3.42-2.55.89-3.77,1.41v5.15c1.8-.87,3.7-1.65,5.75-2.32,4.61-1.5,9.65-2.26,15.11-2.26,4.33,0,8.42.33,12.28.99,3.86.66,8,1.93,12.42,3.81,4.42,1.88,9.5,4.43,15.25,7.62,5.74,3.2,12.75,7.34,21.04,12.42-14.5,22.78-33.6,34.17-57.32,34.17-5.84,0-11.25-.76-16.24-2.26-4.99-1.51-9.37-3.58-13.13-6.21-3.77-2.64-6.73-5.84-8.89-9.6-1.51-2.63-2.48-5.4-2.94-8.3h-4.93c.41,3.6,1.57,7.03,3.49,10.28,2.44,4.14,5.69,7.77,9.74,10.87,4.05,3.11,8.85,5.55,14.4,7.34,5.55,1.79,11.44,2.68,17.65,2.68,13.55,0,26.4-2.4,38.55-7.2,12.14-4.8,23.58-11.72,34.31-20.76,8.09,6.02,15.2,11.06,21.32,15.11,6.12,4.05,11.67,7.24,16.66,9.6,4.99,2.35,9.64,4,13.98,4.94,4.33.94,8.94,1.41,13.84,1.41,10.17,0,19.53-2.59,28.1-7.77,8.56-5.18,16.05-12.85,22.45-23.01,7.72-12.24,11.58-24.29,11.58-36.15,0-5.46-1.27-10.07-3.81-13.84-2.54-3.76-5.89-5.65-10.02-5.65ZM937.26,591.37c3.91-2.55,8.14-3.95,12.85-3.95,6.21,0,10.77,2.59,13.7,7.77,2.92,5.18,4.38,13.41,4.38,24.71s-1.27,22.97-3.81,34.45c-2.54,11.49-6.17,22.59-10.87,33.32-4.71,10.73-10.45,20.95-17.23,30.64-6.78,9.7-14.4,18.5-22.87,26.4-3.77,3.39-7.11,6.26-10.02,8.61-2.92,2.36-5.79,4.43-8.61,6.21-2.82,1.79-5.79,3.44-8.89,4.94-3.11,1.51-6.64,3.11-10.59,4.8,1.69-5.08,3.11-9.5,4.24-13.27,1.13-3.76,2.16-7.67,3.11-11.72.94-4.05,2.02-8.71,3.25-13.98,1.22-5.27,2.77-11.86,4.66-19.77,1.88-8.09,3.67-15.53,5.37-22.31,1.69-6.78,3.29-13.13,4.8-19.06,1.5-5.93,3.11-11.58,4.8-16.94,1.69-5.37,3.48-10.68,5.37-15.95,1.13-2.82,2.12-5.27,2.97-7.34.85-2.07,1.69-4.05,2.54-5.93.85-1.88,1.69-3.76,2.54-5.65.85-1.88,1.84-3.95,2.97-6.21.06.09-.06-.09,0,0,3.18-6.7,10.7-16.7,15.39-19.77Z"/><path class="cls-1" d="M571.66,571.41v21.36h-3.87l-9.96-15.72v15.72h-3.54v-21.36h3.93l9.84,15.75v-15.75h3.6Z"/><path class="cls-1" d="M604.54,571.41v3.15h-11.67v5.67h10.83v3.03h-10.83v6.3h11.85v3.21h-15.57v-21.36h15.39Z"/><path class="cls-1" d="M619.24,571.41h3.81l3.9,16.26,4.38-16.26h3.81l4.23,16.26,4.02-16.26h3.81l-5.91,21.36h-3.81l-4.32-16.41-4.41,16.41h-3.87l-5.64-21.36Z"/><path class="cls-1" d="M701.94,584.64c-.2,2.62-1.13,4.71-2.8,6.28-1.67,1.57-3.83,2.35-6.5,2.35-3.02,0-5.44-1.02-7.26-3.06-1.82-2.04-2.73-4.75-2.73-8.13,0-2.04.39-3.89,1.17-5.56.78-1.67,1.95-3.02,3.51-4.05,1.56-1.03,3.39-1.54,5.49-1.54,2.26,0,4.23.62,5.91,1.88,1.68,1.25,2.69,3.06,3.03,5.42h-3.72c-.26-1.28-.86-2.29-1.8-3.02-.94-.73-2.1-1.1-3.48-1.1s-2.62.4-3.62,1.2c-.99.8-1.69,1.79-2.1,2.96-.41,1.17-.62,2.44-.62,3.82,0,1.04.12,2.02.36,2.94.24.92.6,1.77,1.08,2.54.48.77,1.13,1.39,1.96,1.85s1.79.69,2.89.69c3.18,0,5-1.82,5.46-5.46h3.75Z"/><path class="cls-1" d="M735.69,571.41v21.36h-3.75v-9.6h-9.78v9.6h-3.75v-21.36h3.75v8.49h9.78v-8.49h3.75Z"/><path class="cls-1" d="M763.05,571.38l8.25,21.39h-4.02l-2.04-5.67h-8.46l-2.1,5.67h-3.87l8.25-21.39h3.99ZM764.25,584.27l-3.18-9-3.33,9h6.51Z"/><path class="cls-1" d="M786.54,571.41h9.27c2.3,0,4.11.54,5.44,1.63s2,2.71,2,4.88c0,2.04-.62,3.66-1.86,4.85-1.24,1.19-2.93,1.78-5.07,1.78h-6.03v8.22h-3.75v-21.36ZM790.29,574.52v6.99h5.22c2.72,0,4.08-1.17,4.08-3.51s-1.47-3.48-4.41-3.48h-4.89Z"/><path class="cls-1" d="M834.99,571.41v3.24h-6.81v18.12h-3.75v-18.12h-6.81v-3.24h17.37Z"/><path class="cls-1" d="M865.98,571.41v3.15h-11.67v5.67h10.83v3.03h-10.83v6.3h11.85v3.21h-15.57v-21.36h15.39Z"/><path class="cls-1" d="M882.66,571.41h10.11c2.12,0,3.85.47,5.19,1.42s2.01,2.46,2.01,4.51c0,1.28-.31,2.38-.93,3.29s-1.49,1.57-2.61,1.96c.52.12.97.3,1.35.54.38.24.67.5.88.78.21.28.38.64.53,1.08.14.44.23.83.29,1.15.05.33.09.77.13,1.31.02.14.04.41.08.81.03.4.05.67.06.79,0,.13.03.36.06.68.03.32.05.54.07.67s.05.32.11.57c.05.25.09.44.13.57.04.13.09.28.15.45.06.17.13.32.21.43.08.12.17.23.27.33h-4.02c-.06-.08-.12-.17-.17-.29-.05-.11-.1-.23-.13-.36-.04-.13-.07-.25-.09-.36-.02-.11-.04-.26-.07-.45-.03-.19-.05-.34-.06-.46,0-.12-.03-.3-.04-.54-.02-.24-.04-.42-.04-.54-.01-.12-.03-.33-.04-.63-.02-.3-.03-.51-.03-.63-.1-1.74-.46-2.93-1.09-3.58-.63-.65-1.83-.97-3.58-.97h-4.98v8.82h-3.72v-21.36ZM886.38,574.47v6.69h4.95c.72,0,1.33-.04,1.83-.12.5-.08,1-.23,1.51-.43.51-.21.9-.56,1.17-1.04.27-.48.41-1.09.41-1.83,0-.68-.12-1.25-.36-1.7-.24-.45-.58-.79-1.04-1s-.91-.37-1.38-.45c-.47-.08-1.03-.12-1.67-.12h-5.43Z"/><path class="cls-1" d="M382.82,848.16v3.15h-11.67v5.67h10.83v3.03h-10.83v6.3h11.85v3.21h-15.57v-21.36h15.39Z"/><path class="cls-1" d="M424.69,848.16h8.13c1.48,0,2.78.16,3.9.46,1.12.31,2.15.89,3.09,1.73,2.1,1.88,3.15,4.59,3.15,8.13,0,3.78-1,6.67-3,8.67-.88.88-1.83,1.5-2.87,1.84-1.03.35-2.38.53-4.06.53h-8.34v-21.36ZM428.41,851.34v15.03h4.41c2.34,0,3.99-.68,4.95-2.04.96-1.36,1.44-3.25,1.44-5.67s-.54-4.09-1.62-5.38-2.75-1.94-5.01-1.94h-4.17Z"/><path class="cls-1" d="M488.49,848.16v21.36h-3.78v-21.36h3.78Z"/><path class="cls-1" d="M546.68,848.16v3.24h-6.81v18.12h-3.75v-18.12h-6.81v-3.24h17.37Z"/><path class="cls-1" d="M591.27,848.16v21.36h-3.78v-21.36h3.78Z"/><path class="cls-1" d="M643.34,847.65c3.02,0,5.48,1.04,7.37,3.1,1.89,2.07,2.84,4.77,2.84,8.08s-.95,6.02-2.85,8.08c-1.9,2.07-4.37,3.11-7.41,3.11s-5.53-1.03-7.42-3.09-2.83-4.76-2.83-8.1.92-5.91,2.77-8.02,4.37-3.17,7.54-3.17ZM643.28,850.8c-1.96,0-3.53.73-4.71,2.18s-1.77,3.38-1.77,5.8.58,4.45,1.75,5.91c1.17,1.46,2.77,2.19,4.79,2.19s3.5-.73,4.67-2.21c1.17-1.47,1.75-3.42,1.75-5.86s-.58-4.38-1.75-5.83-2.75-2.18-4.73-2.18Z"/><path class="cls-1" d="M712.57,848.16v21.36h-3.87l-9.96-15.72v15.72h-3.54v-21.36h3.93l9.84,15.75v-15.75h3.6Z"/></svg>